<?xml version="1.0" standalone="no"?><!DOCTYPE svg PUBLIC "-//W3C//DTD SVG 1.1//EN" "http://www.w3.org/Graphics/SVG/1.1/DTD/svg11.dtd">
<svg class="icon" id="computer" width="128px" height="128.00px" viewBox="0 0 1024 1024" version="1.1"
    xmlns="http://www.w3.org/2000/svg">
    <path fill="#2d2d2d" d="M751.518991 247.563036H276.425269c-23.899551 0-36.160194 12.285513-36.160194 36.185064v351.480072c0 23.899551 12.260644 36.185064 36.160194 36.185064h201.380449v78.836187H414.376162c-8.704311 0-15.767237 3.46929-15.767238 12.173601s7.050492 12.1736 15.767238 12.1736h199.191936c8.704311 0 15.767237-3.46929 15.767238-12.1736s-7.050492-12.1736-15.767238-12.173601H546.557339v-78.836187h204.949217c23.911985 0 36.172629-12.285513 36.172629-36.185064V283.7481c0.012435-23.899551-12.248209-36.185064-36.160194-36.185064z m-475.093722 24.347201h475.093722c6.528233 0 11.837863 5.30963 11.837863 11.837863v287.727213H264.587406V283.7481c0-6.528233 5.30963-11.837863 11.837863-11.837863m245.797304 478.339186h-20.094523v-78.861056h20.094523v78.861056z m229.296418-103.170953H276.425269a11.862732 11.862732 0 0 1-11.825428-11.850298v-39.418093h498.757013v39.418093a11.862732 11.862732 0 0 1-11.837863 11.850298" />
    <path fill="#2d2d2d" d="M513.965913 9.537438C236.994741 9.537438 12.435955 234.083789 12.435955 511.067395s224.558786 501.542392 501.529958 501.542392c276.983607 0 501.529957-224.558786 501.529957-501.542392S790.961954 9.537438 513.965913 9.537438m0 978.476454c-263.417316 0-476.934062-213.52918-476.934062-476.934062S250.561031 34.133333 513.965913 34.133333c263.429751 0 476.946497 213.52918 476.946496 476.934062S777.395664 988.013892 513.965913 988.013892" />
</svg>