<?xml version="1.0" standalone="no"?><!DOCTYPE svg PUBLIC "-//W3C//DTD SVG 1.1//EN" "http://www.w3.org/Graphics/SVG/1.1/DTD/svg11.dtd">
<svg class="icon" id="phone" width="128px" height="128.00px" viewBox="-60 -60 1144 1144" version="1.1"
    xmlns="http://www.w3.org/2000/svg">
    <path d="M512 1020.179104C236.895522 1020.179104 11.462687 794.746269 11.462687 519.641791 11.462687 244.537313 236.895522 19.104478 512 19.104478s500.537313 225.432836 500.537313 500.537313c0 275.104478-225.432836 500.537313-500.537313 500.537313z m0-962.865671C256 57.313433 49.671642 263.641791 49.671642 519.641791s206.328358 462.328358 462.328358 462.328358 462.328358-206.328358 462.328358-462.328358S768 57.313433 512 57.313433z" />
    <path d="M680.119403 164.298507H351.522388c-30.567164 0-53.492537 26.746269-53.492537 53.492538v607.522388c0 30.567164 22.925373 53.492537 53.492537 53.492537h328.597015c30.567164 0 53.492537-22.925373 53.492537-53.492537V217.791045c0-26.746269-22.925373-53.492537-53.492537-53.492538z m30.567164 661.014926c0 15.283582-15.283582 30.567164-30.567164 30.567164H351.522388c-15.283582 0-30.567164-15.283582-30.567164-30.567164V217.791045c0-15.283582 15.283582-30.567164 30.567164-30.567164h328.597015c15.283582 0 30.567164 15.283582 30.567164 30.567164v607.522388z" fill="#040000" />
    <path d="M584.597015 221.61194h-133.731343c-7.641791 0-11.462687 3.820896-11.462687 11.462687s3.820896 11.462687 11.462687 11.462686h133.731343c7.641791 0 11.462687-3.820896 11.462686-11.462686s-7.641791-11.462687-11.462686-11.462687zM489.074627 813.850746c0 15.283582 11.462687 26.746269 26.746269 26.746269 15.283582 0 26.746269-11.462687 26.746268-26.746269 0-15.283582-11.462687-26.746269-26.746268-26.746268-15.283582 0-26.746269 11.462687-26.746269 26.746268z" fill="#040000" />
</svg>